<svg width="24" height="26" viewBox="0 0 24 26" fill="none" xmlns="http://www.w3.org/2000/svg">
<path d="M1.51108 23C1.38755 23 1.26737 22.9512 1.17824 22.861C1.06075 22.7422 1.01543 22.5696 1.05957 22.4083L2.4898 17.1856C1.59937 15.5755 1.1299 13.754 1.13057 11.905C1.13309 5.89189 6.02649 1 12.0391 1C14.9554 1.00117 17.6957 2.13716 19.7553 4.19832C21.8147 6.25964 22.9483 8.99974 22.9475 11.9137C22.9448 17.927 18.0514 22.8192 12.0391 22.8192C12.0391 22.8192 12.0346 22.8192 12.0344 22.8192C10.2782 22.8186 8.53714 22.3905 6.98691 21.5798L1.62975 22.9847C1.59047 22.995 1.55053 23 1.51108 23Z" fill="#E5E5E5"/>
<path d="M1.51111 22.5318L2.99219 17.1232C2.0786 15.5403 1.59805 13.7447 1.59872 11.9051C1.60107 6.1501 6.28433 1.46802 12.0391 1.46802C14.8318 1.46919 17.453 2.55617 19.4242 4.52904C21.3952 6.50191 22.4804 9.12434 22.4794 11.9135C22.4768 17.6682 17.7929 22.351 12.0391 22.351C12.0388 22.351 12.0393 22.351 12.0391 22.351H12.0346C10.2873 22.3503 8.57057 21.9121 7.04568 21.0804L1.51111 22.5318ZM7.30199 19.1909L7.61905 19.3788C8.95108 20.1693 10.4783 20.5874 12.0358 20.5883H12.0391C16.8217 20.5883 20.7144 16.6962 20.7165 11.9128C20.7173 9.59465 19.8156 7.41483 18.1773 5.77513C16.5388 4.13544 14.3603 3.23192 12.0423 3.23091C7.25583 3.23091 3.3633 7.12244 3.36145 11.9057C3.36078 13.5449 3.81934 15.1411 4.68811 16.5225L4.89456 16.8508L4.01773 20.052L7.30199 19.1909Z" fill="white"/>
<path d="M1.87415 22.1671L3.30403 16.9456C2.42183 15.4175 1.95807 13.6838 1.95857 11.9082C1.96075 6.35246 6.48204 1.83252 12.0373 1.83252C14.7336 1.83369 17.2642 2.88307 19.1667 4.78763C21.0698 6.69218 22.1171 9.22382 22.1161 11.9161C22.1138 17.472 17.5923 21.9924 12.0378 21.9924C12.0373 21.9924 12.0379 21.9924 12.0378 21.9924H12.0332C10.3465 21.9917 8.68906 21.5684 7.21704 20.7661L1.87415 22.1671Z" fill="#64B161"/>
<path d="M1.51111 22.5318L2.99219 17.1232C2.0786 15.5403 1.59805 13.7447 1.59872 11.9051C1.60107 6.1501 6.28433 1.46802 12.0391 1.46802C14.8318 1.46919 17.453 2.55617 19.4242 4.52904C21.3952 6.50191 22.4804 9.12434 22.4794 11.9135C22.4768 17.6682 17.7929 22.351 12.0391 22.351C12.0388 22.351 12.0393 22.351 12.0391 22.351H12.0346C10.2873 22.3503 8.57057 21.9121 7.04568 21.0804L1.51111 22.5318ZM7.30199 19.1909L7.61905 19.3788C8.95108 20.1693 10.4783 20.5874 12.0358 20.5883H12.0391C16.8217 20.5883 20.7144 16.6962 20.7165 11.9128C20.7173 9.59465 19.8156 7.41483 18.1773 5.77513C16.5388 4.13544 14.3603 3.23192 12.0423 3.23091C7.25583 3.23091 3.3633 7.12244 3.36145 11.9057C3.36078 13.5449 3.81934 15.1411 4.68811 16.5225L4.89456 16.8508L4.01773 20.052L7.30199 19.1909Z" fill="white"/>
<path fill-rule="evenodd" clip-rule="evenodd" d="M9.42973 7.54135C9.23436 7.10697 9.02858 7.09824 8.84261 7.09069C8.69054 7.08414 8.51648 7.08448 8.34276 7.08448C8.16887 7.08448 7.88622 7.14994 7.6472 7.41094C7.40802 7.67194 6.73395 8.30304 6.73395 9.58657C6.73395 10.8703 7.66885 12.1105 7.79927 12.2847C7.92969 12.4588 9.60396 15.1769 12.2554 16.2226C14.4591 17.0917 14.9074 16.9188 15.3858 16.8753C15.8641 16.8318 16.9291 16.2442 17.1465 15.6351C17.364 15.026 17.364 14.504 17.2987 14.3947C17.2334 14.2861 17.0595 14.2208 16.7987 14.0904C16.5379 13.96 15.2554 13.3287 15.0162 13.2418C14.777 13.1547 14.6031 13.1113 14.4292 13.3725C14.2552 13.6333 13.7556 14.2208 13.6034 14.3947C13.4512 14.5691 13.2989 14.5909 13.0381 14.4603C12.7773 14.3296 11.937 14.0543 10.9404 13.1656C10.1649 12.4742 9.64122 11.6202 9.48898 11.359C9.33691 11.0982 9.48647 10.9693 9.60362 10.8268C9.81461 10.5701 10.1686 10.1087 10.2555 9.93485C10.3425 9.76062 10.299 9.60839 10.2339 9.4778C10.1686 9.34738 9.66153 8.05731 9.42973 7.54135Z" fill="white"/>
</svg>
